# xmcd
# 
# Track frame offsets:
#     150
#     33783
#     78433
#     108640
#     150192
#     166474
#     203128
#     270009
#     292023
#     315738
# 
# Disc length: 4578
# 
# Revision: 1
# Processed by: cddbd v1.5.2PL0 Copyright (c) Steve Scherf et al.
# Submitted via: BonkEnc v1.0.8
# 
DISCID=7811e00a
DTITLE=Gerald Wilson - New York, New Sound
DYEAR=2003
DGENRE=Big Band
TTITLE0=Milestones
TTITLE1=Blues For The Count
TTITLE2=Equinox
TTITLE3=Viva Tirado
TTITLE4=Teri
TTITLE5=Blues For Yna Yna
TTITLE6=Theme For Monterey
TTITLE7=M Capetillo
TTITLE8=Josefina
TTITLE9=Nancy Jo
EXTD=YEAR: 2003
EXTT0=
EXTT1=
EXTT2=
EXTT3=
EXTT4=
EXTT5=
EXTT6=
EXTT7=
EXTT8=
EXTT9=
PLAYORDER=
